{"title":"This Is The End 2013 TS XViD UNiQUE","uid":8753702,"size":746311680,"categoryP":"video","categoryS":"movies","magnet":"?xt=urn:btih:14887948d22bdb15d255d3b9d5be94758915e30d&amp;dn=This+Is+The+End+2013+TS+XViD+UNiQUE&amp;tr=udp%3A%2F%2Ftracker.openbittorrent.com%3A80&amp;tr=udp%3A%2F%2Fopen.demonii.com%3A1337&amp;tr=udp%3A%2F%2Ftracker.coppersurfer.tk%3A6969&amp;tr=udp%3A%2F%2Fexodus.desync.com%3A6969","seeders":3,"leechers":0,"uploader":"Thhaque","files":-1,"time":1375097512,"description":"This Is The End 2013 TS XViD UNiQUE\n &lt;a href=&quot;\nhttp://www.imdb.com/title/tt1245492/&quot; rel=&quot;nofollow&quot; target=&quot;_NEW&quot;&gt;\nhttp://www.imdb.com/title/tt1245492/&lt;/a&gt;\n\nWhile attending a party at James Franco's house, Seth Rogen,\nJay Baruchel and many other celebrities are faced with the\napocalypse.\n\nSource: 26K - Thanks\n\nNotes.:\n1st up its better than the previous source but still not the\ngreatest. Corrected the AR, changed all rgb and... blah blah\n\nInfo:\nFormat : AVI\nFormat/Info : Audio Video Interleave\nFile size : 708 MiB\nDuration : 1h 40mn\nOverall bit rate : 982 Kbps\nWriting application : VirtualDubMod 1.5.10.2 (build 2540/release)\nWriting library : VirtualDubMod build 2540/release\n\nVideo\nID : 0\nFormat : MPEG-4 Visual\nFormat profile : Advanced Simple@L5\nFormat settings, BVOP : 2\nFormat settings, QPel : No\nFormat settings, GMC : No warppoints\nFormat settings, Matrix : Default (H.263)\nMuxing mode : Packed bitstream\nCodec ID : XVID\nCodec ID/Hint : XviD\nDuration : 1h 40mn\nBit rate : 842 Kbps\nWidth : 716 pixels\nHeight : 342 pixels\nDisplay aspect ratio : 2.094\nFrame rate : 29.970 fps\nColor space : YUV\nChroma subsampling : 4:2:0\nBit depth : 8 bits\nScan type : Progressive\nCompression mode : Lossy\nBits/(Pixel*Frame) : 0.115\nStream size : 607 MiB (86%)\nWriting library : XviD 64\n\nAudio\nID : 1\nFormat : MPEG Audio\nFormat version : Version 1\nFormat profile : Layer 3\nCodec ID : 55\nCodec ID/Hint : MP3\nDuration : 1h 40mn\nBit rate mode : Constant\nBit rate : 128 Kbps\nChannel(s) : 2 channels\nSampling rate : 44.1 KHz\nCompression mode : Lossy\nStream size : 92.2 MiB (13%)\nAlignment : Split accross interleaves\nInterleave, duration : 33 ms (1.00 video frame)\nInterleave, preload duration : 500 ms\n\nScreenshots:\n &lt;a href=&quot;\nhttp://i.imgur.com/tmTb1rO.png&quot; rel=&quot;nofollow&quot; target=&quot;_NEW&quot;&gt;\nhttp://i.imgur.com/tmTb1rO.png&lt;/a&gt; &lt;a href=&quot;\nhttp://i.imgur.com/4WczEx2.png&quot; rel=&quot;nofollow&quot; target=&quot;_NEW&quot;&gt;\nhttp://i.imgur.com/4WczEx2.png&lt;/a&gt; &lt;a href=&quot;\nhttp://i.imgur.com/CDIEc94.png&quot; rel=&quot;nofollow&quot; target=&quot;_NEW&quot;&gt;\nhttp://i.imgur.com/CDIEc94.png&lt;/a&gt; &lt;a href=&quot;\nhttp://i.imgur.com/Lxh5rNk.png&quot; rel=&quot;nofollow&quot; target=&quot;_NEW&quot;&gt;\nhttp://i.imgur.com/Lxh5rNk.png&lt;/a&gt;","torrent":{"xt":"urn:btih:14887948d22bdb15d255d3b9d5be94758915e30d","amp;dn":"This+Is+The+End+2013+TS+XViD+UNiQUE","amp;tr":["udp%3A%2F%2Ftracker.openbittorrent.com%3A80","udp%3A%2F%2Fopen.demonii.com%3A1337","udp%3A%2F%2Ftracker.coppersurfer.tk%3A6969","udp%3A%2F%2Fexodus.desync.com%3A6969"],"infoHash":"14887948d22bdb15d255d3b9d5be94758915e30d","infoHashBuffer":{"type":"Buffer","data":[20,136,121,72,210,43,219,21,210,85,211,185,213,190,148,117,137,21,227,13]},"announce":[],"urlList":[]}}